# xmcd CD database file
# Copyright (C) 1993-1998 Ti Kan
# 
# Track frame offsets:
#     150
#     21103
#     39523
#     57778
#     76790
#     120628
#     140495
#     156460
#     178158
#     203040
#     220845
#     244033
#     268248
#     289313
#     309143
# 
# Disc length: 4378 seconds
# 
# Revision: 1
# Processed by: cddbd v1.4b41PL1 Copyright (c) Steve Scherf et al.
# Submitted via: DiscPlay 4.0.4
# 
DISCID=d511180f
DTITLE=Eros Ramazotti - Best Of
DYEAR=1900
DGENRE=
TTITLE0=Terra Promesa
TTITLE1=Una Storia Importante
TTITLE2=Adesso TU
TTITLE3=Ma Che Bello Questo Amore
TTITLE4=Musica E'
TTITLE5=Piu Bella Cosa
TTITLE6=Memorie
TTITLE7=Cose Della Vita
TTITLE8=L' Aurora
TTITLE9=Ancora Un Minuto Di Sole
TTITLE10=Quasi Amore
TTITLE11=Se Bastasse Una Canzone
TTITLE12=Un' Altra Te
TTITLE13=Favola
TTITLE14=Quanto Amore Sei
EXTD=
EXTT0=
EXTT1=
EXTT2=
EXTT3=
EXTT4=
EXTT5=
EXTT6=
EXTT7=
EXTT8=
EXTT9=
EXTT10=
EXTT11=
EXTT12=
EXTT13=
EXTT14=
PLAYORDER=
